{"title":"R.I.P.D.(2013)1080p BDRip[Hindi(DD2.1)-Eng]AC3-DGrea8","uid":9212620,"size":2968960168,"categoryP":"video","categoryS":"hd___movies","magnet":"?xt=urn:btih:342a9c17049bec0b96f0ef8eaae24351316f1cd7&amp;dn=R.I.P.D.%282013%291080p+BDRip%5BHindi%28DD2.1%29-Eng%5DAC3-DGrea8&amp;tr=udp%3A%2F%2Ftracker.openbittorrent.com%3A80&amp;tr=udp%3A%2F%2Fopen.demonii.com%3A1337&amp;tr=udp%3A%2F%2Ftracker.coppersurfer.tk%3A6969&amp;tr=udp%3A%2F%2Fexodus.desync.com%3A6969","seeders":2,"leechers":1,"uploader":"DGrea8","files":-1,"time":1384815623,"description":"         R.I.P.D.(2013)1080p BDRip[Hindi(DD2.1)-Eng(DD5.1)]AC3-DGrea8\n\n\nStoryline:-\n\nAfter Nick is murdered by his own partner, he joins the Rest in Peace Department to protect the world from the undeads. While working with his new partner, many undeads are seen gathering in Boston. Soon he realizes that someone close to him is behind all a plot to bring on the apocalypse.\n\n\nCast Info:. \n\nJeff Bridges\t ...\tRoy\nRyan Reynolds\t ...\tNick\nKevin Bacon\t ...\tHayes\nMary-Louise Parker\t ...\tProctor\nStephanie Szostak\t ...\tJulia\nJames Hong\t ...\tNick's Avatar\nMarisa Miller\t ...\tRoy's Avatar\nRobert Knepper\t ...\tStanley Nawlicki\nMike O'Malley\t ...\tElliot\nDevin Ratray\t ...\tPulaski\nLarry Joe Campbell\t ...\tOfficer Murphy\nMichael Coons\t ...\tDetective in Locker Room\nChristina Everett\t ...\tR.I.P.D. Evidence Clerk\nMichael Tow\t ...\tR.I.P.D. Evidence Clerk\nLonnie Farmer\t ...\tProctor's Avatar\n\n\nGeneral Info:. \n\nDirector:Robert Schwentke\nWriters: Phil Hay (screenplay), Matt Manfredi (screenplay)\nStars:Ryan Reynolds, Jeff Bridges, Mary-Louise Parker\nRelease Date:19 July 2013 (USA)\nGenres:Action | Comedy | Crime\n\nVideo Info:. \n\nVideo\nID : 1\nFormat : AVC\nFormat/Info : Advanced Video Codec\nFormat profile : &lt;a class=&quot;__cf_email__&quot; href=&quot;/cdn-cgi/l/email-protection&quot; data-cfemail=&quot;0c44656b644c4038223d&quot;&gt;[email&amp;#160;protected]&lt;/a&gt;&lt;script cf-hash='f9e31' type=&quot;text/javascript&quot;&gt;\n/* &lt;![CDATA[ */!function(){try{var t=&quot;currentScript&quot;in document?document.currentScript:function(){for(var t=document.getElementsByTagName(&quot;script&quot;),e=t.length;e--;)if(t[e].getAttribute(&quot;cf-hash&quot;))return t[e]}();if(t&amp;&amp;t.previousSibling){var e,r,n,i,c=t.previousSibling,a=c.getAttribute(&quot;data-cfemail&quot;);if(a){for(e=&quot;&quot;,r=parseInt(a.substr(0,2),16),n=2;a.length-n;n+=2)i=parseInt(a.substr(n,2),16)^r,e+=String.fromCharCode(i);e=document.createTextNode(e),c.parentNode.replaceChild(e,c)}}}catch(u){}}();/* ]]&gt; */&lt;/script&gt;\nFormat settings, CABAC : Yes\nFormat settings, ReFrames : 5 frames\nMuxing mode : Header stripping\nCodec ID : V_MPEG4/ISO/AVC\nDuration : 1h 31mn\nBit rate : 3 350 Kbps\nWidth : 1 920 pixels\nHeight : 816 pixels\nDisplay aspect ratio : 2.35:1\nFrame rate mode : Constant\nFrame rate : 25.000 fps\nOriginal frame rate : 23.976 fps\nColor space : YUV\nChroma subsampling : 4:2:0\nBit depth : 8 bits\nScan type : Progressive\nBits/(Pixel*Frame) : 0.086\nStream size : 2.20 GiB (82%)\n\n\nAudio Info:. \n\nAudio #1\nID : 2\nFormat : AC-3\nFormat/Info : Audio Coding 3\nMode extension : CM (complete main)\nFormat settings, Endianness : Big\nMuxing mode : Header stripping\nCodec ID : A_AC3\nDuration : 1h 31mn\nBit rate mode : Constant\nBit rate : 448 Kbps\nChannel(s) : 6 channels\nChannel positions : Front: L C R, Side: L R, LFE\nSampling rate : 48.0 KHz\nBit depth : 16 bits\nCompression mode : Lossy\nStream size : 295 MiB (11%)\nLanguage : English\nDefault : Yes\nForced : No\n\nAudio #2\nID : 3\nFormat : AC-3\nFormat/Info : Audio Coding 3\nMode extension : CM (complete main)\nFormat settings, Endianness : Big\nMuxing mode : Header stripping\nCodec ID : A_AC3\nDuration : 1h 31mn\nBit rate mode : Constant\nBit rate : 224 Kbps\nChannel(s) : 2 channels\nChannel positions : Front: L R\nSampling rate : 48.0 KHz\nBit depth : 16 bits\nCompression mode : Lossy\nDelay relative to video : 300ms\nStream size : 147 MiB (5%)\nLanguage : Hindi\n\nSubtitle : English\n\n\n\n\nScreen Shoots:-\n     &lt;a href=&quot;\nhttp://img89.imageshack.us/img89/4751/jlac.jpg&quot; rel=&quot;nofollow&quot; target=&quot;_NEW&quot;&gt;\nhttp://img89.imageshack.us/img89/4751/jlac.jpg&lt;/a&gt;\n &lt;a href=&quot;\nhttp://img707.imageshack.us/img707/4812/5udl.jpg&quot; rel=&quot;nofollow&quot; target=&quot;_NEW&quot;&gt;\nhttp://img707.imageshack.us/img707/4812/5udl.jpg&lt;/a&gt;\n &lt;a href=&quot;\nhttp://img842.imageshack.us/img842/3638/wxm4.jpg&quot; rel=&quot;nofollow&quot; target=&quot;_NEW&quot;&gt;\nhttp://img842.imageshack.us/img842/3638/wxm4.jpg&lt;/a&gt;\n &lt;a href=&quot;\nhttp://img19.imageshack.us/img19/5876/m266.jpg&quot; rel=&quot;nofollow&quot; target=&quot;_NEW&quot;&gt;\nhttp://img19.imageshack.us/img19/5876/m266.jpg&lt;/a&gt;\n\n\n\nNote:-- Check The Torrent\n\n\nCheck The Sample Video In This Torrent\t","torrent":{"xt":"urn:btih:342a9c17049bec0b96f0ef8eaae24351316f1cd7","amp;dn":"R.I.P.D.%282013%291080p+BDRip%5BHindi%28DD2.1%29-Eng%5DAC3-DGrea8","amp;tr":["udp%3A%2F%2Ftracker.openbittorrent.com%3A80","udp%3A%2F%2Fopen.demonii.com%3A1337","udp%3A%2F%2Ftracker.coppersurfer.tk%3A6969","udp%3A%2F%2Fexodus.desync.com%3A6969"],"infoHash":"342a9c17049bec0b96f0ef8eaae24351316f1cd7","infoHashBuffer":{"type":"Buffer","data":[52,42,156,23,4,155,236,11,150,240,239,142,170,226,67,81,49,111,28,215]},"announce":[],"urlList":[]}}